<svg width="580" height="400" xmlns="http://www.w3.org/2000/svg">
 <!-- Created with Method Draw - http://github.com/duopixel/Method-Draw/ -->

 <g>
  <title>background</title>
  <rect fill="#fff" id="canvas_background" height="402" width="582" y="-1" x="-1"/>
  <g display="none" overflow="visible" y="0" x="0" height="100%" width="100%" id="canvasGrid">
   <rect fill="url(#gridpattern)" stroke-width="0" y="0" x="0" height="100%" width="100%"/>
  </g>
 </g>
 <g>
  <title>Layer 1</title>
  <g id="svg_18">
   <path id="svg_4" fill="#e39d10" d="m368.693239,170.157067a78.124994,78.124994 0 1 0 -120.277769,65.785585a24.887151,24.887151 0 0 1 11.770832,20.842012l0,17.539061a13.020832,13.020832 0 0 0 13.020832,13.020832l34.72222,0a13.020832,13.020832 0 0 0 13.020832,-13.020832l0,-17.178818a25.568574,25.568574 0 0 1 12.022569,-21.362846a78.05555,78.05555 0 0 0 35.720483,-65.624995z"/>
   <path id="svg_5" fill="#ebebeb" d="m268.866858,313.386223a13.020832,13.020832 0 0 0 13.020832,13.020832l17.36111,0a13.020832,13.020832 0 0 0 13.020832,-13.020832l0,-26.041665l-43.402774,0l0,26.041665z"/>
   <path id="svg_6" fill="#10bde0" d="m395.572578,124.241272l13.645832,-10.234374l-15.624999,-20.833332l-13.645832,10.234374a8.680555,8.680555 0 0 1 -13.797742,-8.172742l2.408854,-16.879339l-25.781248,-3.684896l-2.408854,16.879339a8.680555,8.680555 0 0 1 -15.538193,3.984375l-10.230034,-13.645832l-20.833332,15.624999l10.230034,13.645832a8.680555,8.680555 0 0 1 -8.172742,13.797742l-16.879339,-2.408854l-3.684896,25.781248l16.883679,2.408854a8.680555,8.680555 0 0 1 3.980034,15.538193l-13.641492,10.234374l15.624999,20.833332l13.641492,-10.230034a8.680555,8.680555 0 0 1 13.802082,8.172742l-2.430555,16.874999l25.781248,3.684896l2.430555,-16.883679a8.680555,8.680555 0 0 1 15.538193,-3.980034l10.234374,13.641492l20.833332,-15.624999l-10.238714,-13.641492a8.680555,8.680555 0 0 1 8.172742,-13.802082l16.879339,2.413194l3.684896,-25.781248l-16.879339,-2.413194a8.680555,8.680555 0 0 1 -3.984375,-15.533853zm-49.722218,51.397566a30.381942,30.381942 0 1 1 30.381942,-30.381942a30.381942,30.381942 0 0 1 -30.381942,30.381942z"/>
   <path id="svg_7" fill="#c9dfff" d="m248.415471,235.942653a78.337668,78.337668 0 0 1 -10.694444,-8.281249a21.666665,21.666665 0 1 1 -20.937498,-27.122394c0.664062,0 1.302083,0.138889 1.935764,0.195312a78.06423,78.06423 0 0 1 -6.232638,-30.577255l-5.525173,0l-2.999132,14.266492a4.340277,4.340277 0 0 1 -6.710069,2.682291l-11.992187,-8.268229l-13.020832,13.020832l8.246527,11.992187a4.340277,4.340277 0 0 1 -2.682291,6.710069l-14.244791,2.999132l0,17.36111l14.262152,2.999132a4.340277,4.340277 0 0 1 2.682291,6.710069l-8.263888,11.992187l13.020832,13.020832l11.992187,-8.246527a4.340277,4.340277 0 0 1 6.714409,2.682291l2.994791,14.244791l17.36111,0l2.994791,-14.266492a4.340277,4.340277 0 0 1 6.714409,-2.682291l11.992187,8.268229l13.624131,-13.624131a25.269095,25.269095 0 0 0 -11.232638,-16.076388z"/>
   <path id="svg_8" d="m417.052611,137.891445l-16.883679,-2.408854a4.340277,4.340277 0 0 1 -1.992187,-7.769097l13.645832,-10.234374a4.340277,4.340277 0 0 0 0.868055,-6.076388l-15.624999,-20.833332a4.340277,4.340277 0 0 0 -6.076388,-0.868055l-13.641492,10.234374a4.340277,4.340277 0 0 1 -6.918402,-4.084201l2.413194,-16.883679a4.340277,4.340277 0 0 0 -3.684896,-4.913194l-25.763887,-3.680555a4.340277,4.340277 0 0 0 -4.913194,3.680555l-2.413194,16.883679a4.340277,4.340277 0 0 1 -7.769097,1.992187l-10.230034,-13.645832a4.340277,4.340277 0 0 0 -6.076388,-0.868055l-13.042534,9.787326a83.971348,83.971348 0 0 0 -17.751735,0a82.465271,82.465271 0 0 0 -72.712668,73.945307c-0.117187,1.228299 -0.16059,2.447916 -0.221354,3.667534l-1.302083,0a4.340277,4.340277 0 0 0 -4.244791,3.472222l-2.999132,14.262152l-12.013888,-8.28559a4.340277,4.340277 0 0 0 -5.533854,0.503472l-13.020832,13.020832a4.340277,4.340277 0 0 0 -0.503472,5.529513l8.246527,11.992187l-14.266492,2.999132a4.340277,4.340277 0 0 0 -3.411458,4.249132l0,17.36111a4.340277,4.340277 0 0 0 3.44618,4.249132l14.266492,2.999132l-8.246527,11.992187a4.340277,4.340277 0 0 0 0.503472,5.529513l13.020832,13.020832a4.340277,4.340277 0 0 0 5.533854,0.503472l11.992187,-8.268229l2.999132,14.266492a4.340277,4.340277 0 0 0 4.244791,3.472222l17.36111,0a4.340277,4.340277 0 0 0 4.249132,-3.44618l2.999132,-14.266492l11.992187,8.246527a4.340277,4.340277 0 0 0 5.529513,-0.503472l6.740451,-6.762152l0,12.369791a17.304686,17.304686 0 0 0 8.680555,14.947916l0,24.114581a17.36111,17.36111 0 0 0 17.36111,17.36111l17.36111,0a17.36111,17.36111 0 0 0 17.36111,-17.36111l0,-24.114581a17.304686,17.304686 0 0 0 8.680555,-14.947916l0,-17.178818a21.267359,21.267359 0 0 1 10.039062,-17.717013a83.268223,83.268223 0 0 0 10.217013,-7.812499l-5.78993,-6.467013a73.871522,73.871522 0 0 1 -9.144965,6.992187a29.895831,29.895831 0 0 0 -14.001735,25.004338l0,17.178818a8.680555,8.680555 0 0 1 -8.680555,8.680555l-34.72222,0a8.680555,8.680555 0 0 1 -8.680555,-8.680555l0,-17.539061a29.201387,29.201387 0 0 0 -13.76736,-24.496526a73.563362,73.563362 0 0 1 38.875865,-135.850684a4.730902,4.730902 0 0 0 -0.169271,0.47309a4.340277,4.340277 0 0 0 0.828993,3.216146l10.230034,13.641492a4.249132,4.249132 0 0 1 0.260417,4.817708a4.314236,4.314236 0 0 1 -4.340277,2.087673l-16.883679,-2.413194a4.340277,4.340277 0 0 0 -4.913194,3.684896l-3.684896,25.776908a4.340277,4.340277 0 0 0 3.684896,4.913194l16.883679,2.413194a4.340277,4.340277 0 0 1 1.992187,7.769097l-13.641492,10.230034a4.340277,4.340277 0 0 0 -0.868055,6.076388l15.624999,20.833332a4.340277,4.340277 0 0 0 6.076388,0.868055l13.645832,-10.230034a4.340277,4.340277 0 0 1 6.896701,4.084201l-2.408854,16.883679a4.340277,4.340277 0 0 0 3.680555,4.913194l25.781248,3.684896a4.826389,4.826389 0 0 0 0.611979,0.039062a4.340277,4.340277 0 0 0 4.301215,-3.723958l2.408854,-16.883679a4.340277,4.340277 0 0 1 7.769097,-1.992187l10.234374,13.641492a4.340277,4.340277 0 0 0 6.076388,0.868055l20.833332,-15.624999a4.340277,4.340277 0 0 0 0.868055,-6.076388l-10.230034,-13.641492a4.266493,4.266493 0 0 1 -0.260417,-4.817708a4.214409,4.214409 0 0 1 4.340277,-2.083333l16.883679,2.408854a4.340277,4.340277 0 0 0 4.913194,-3.680555l3.680555,-25.781248a4.340277,4.340277 0 0 0 -3.680555,-4.913194l-0.008681,-0.008681zm-201.249985,66.987842a82.191834,82.191834 0 0 0 16.11111,23.203123a17.335068,17.335068 0 1 1 -16.27604,-23.203123l0.164931,0zm83.446174,117.187491l-17.36111,0a8.680555,8.680555 0 0 1 -8.680555,-8.680555l0,-4.340277l34.72222,0l0,4.340277a8.680555,8.680555 0 0 1 -8.680555,8.680555zm8.680555,-30.381942l0,8.680555l-34.72222,0l0,-8.680555l34.72222,0zm-53.111975,-40.976559l-9.309895,9.292534l-9.014756,-6.215277a8.680555,8.680555 0 0 0 -13.420138,5.360243l-2.274305,10.837673l-10.316839,0l-2.274305,-10.820312a8.680555,8.680555 0 0 0 -13.420138,-5.360243l-9.019097,6.197916l-7.907986,-7.890624l6.210937,-9.010416a8.680555,8.680555 0 0 0 -5.355902,-13.424478l-10.820312,-2.278646l0,-10.312499l10.820312,-2.278646a8.680555,8.680555 0 0 0 5.360243,-13.398436l-6.215277,-9.036458l7.907986,-7.890624l9.023437,6.215277a8.680555,8.680555 0 0 0 13.415798,-5.364583l0.759549,-3.611111a82.638883,82.638883 0 0 0 3.44184,14.717881a26.041665,26.041665 0 1 0 26.245658,37.760414a82.052945,82.052945 0 0 0 7.417534,5.403645a21.184894,21.184894 0 0 1 8.745659,11.10677zm154.24044,-87.651903l-12.586805,-1.796875a13.020832,13.020832 0 0 0 -12.256944,20.703123l7.625867,10.16927l-13.888888,10.416666l-7.630208,-10.16493a13.020832,13.020832 0 0 0 -23.30729,5.967881l-1.757812,12.604166l-17.183158,-2.456597l1.796875,-12.586805a13.020832,13.020832 0 0 0 -20.703123,-12.261284l-10.16927,7.625867l-10.416666,-13.888888l10.16493,-7.630208a13.020832,13.020832 0 0 0 -5.967881,-23.30729l-12.586805,-1.796875l2.456597,-17.183158l12.586805,1.796875a13.020832,13.020832 0 0 0 12.261284,-20.703123l-7.651909,-10.177951l13.888888,-10.416666l7.630208,10.16927a13.020832,13.020832 0 0 0 23.30729,-5.967881l1.796875,-12.586805l17.183158,2.452257l-1.796875,12.586805a13.020832,13.020832 0 0 0 20.703123,12.256944l10.16927,-7.625867l10.416666,13.888888l-10.16927,7.630208a13.020832,13.020832 0 0 0 5.967881,23.30729l12.586805,1.796875l-2.469618,17.178818z"/>
   <path id="svg_9" d="m345.846019,110.539016a34.72222,34.72222 0 1 0 34.72222,34.72222a34.761282,34.761282 0 0 0 -34.72222,-34.72222zm0,60.763884a26.041665,26.041665 0 1 1 26.041665,-26.041665a26.072047,26.072047 0 0 1 -26.041665,26.041665z"/>
   <path id="svg_10" d="m286.227968,261.302894l8.680555,0l0,13.020832l-8.680555,0l0,-13.020832z"/>
   <path id="svg_11" d="m271.583872,218.677029a52.083329,52.083329 0 0 1 -8.793402,-92.591139l-4.639757,-7.343749a60.763884,60.763884 0 0 0 10.282117,108.012145a27.708331,27.708331 0 0 1 17.795138,25.868054l8.680555,0a36.315101,36.315101 0 0 0 -23.324651,-33.94531z"/>
   <path id="svg_12" d="m373.033517,230.920952l30.381942,0l0,8.680555l-30.381942,0l0,-8.680555z"/>
   <path id="svg_13" d="m365.915568,260.299592l5.556507,-6.669127l26.042942,21.698161l-5.556507,6.669127l-26.042942,-21.698161z"/>
   <path id="svg_14" d="m346.991852,265.643171l8.680555,0l0,30.381942l-8.680555,0l0,-30.381942z"/>
   <path id="svg_15" d="m163.64842,144.244832l34.721367,-8.680185l2.104255,8.417173l-34.721367,8.680185l-2.104255,-8.417173z"/>
   <path id="svg_16" d="m170.857466,99.905977l5.042987,-7.060098l30.380671,21.700738l-5.042987,7.060098l-30.380671,-21.700738z"/>
   <path id="svg_17" d="m208.046194,71.402485l8.410133,-2.149814l8.875505,34.721234l-8.410133,2.149814l-8.875505,-34.721234z"/>
  </g>
  <path id="svg_20" d="m107.5,211.45313" opacity="0.5" fill-opacity="null" stroke-width="1.5" stroke="#AF84A3" fill="#fff"/>
  <text stroke="#AF84A3" transform="matrix(13.01350714474256,0,0,7.987100099711653,-1124.5461083704508,-1465.6432932196306) " xml:space="preserve" text-anchor="start" font-family="Helvetica, Arial, sans-serif" font-size="24" id="svg_21" y="202.061664" x="88.397208" fill-opacity="null" stroke-opacity="null" stroke-width="0" fill="#000000">+</text>
 </g>
</svg>